<svg width="22" height="27" viewBox="0 0 22 27" fill="none" xmlns="http://www.w3.org/2000/svg">
<path d="M18.8217 14.9482V12.4219C18.8227 10.7145 18.1984 9.05666 17.0498 7.7165C15.9011 6.37634 14.2952 5.4322 12.4918 5.03677C12.5056 4.98778 12.5162 4.93811 12.5238 4.888V1.57015C12.5238 1.19792 12.3633 0.840942 12.0775 0.577737C11.7917 0.314532 11.4041 0.166664 11 0.166664C10.5959 0.166664 10.2083 0.314532 9.92251 0.577737C9.63674 0.840942 9.4762 1.19792 9.4762 1.57015V4.888C9.48378 4.93811 9.49446 4.98778 9.5082 5.03677C7.70479 5.4322 6.09891 6.37634 4.95024 7.7165C3.80158 9.05666 3.17728 10.7145 3.1783 12.4219V14.9482C3.1783 18.2969 0.333344 19.1334 0.333344 20.8078C0.333344 21.64 0.333344 22.4821 1.15315 22.4821H20.8469C21.6667 22.4821 21.6667 21.64 21.6667 20.8078C21.6667 19.1334 18.8217 18.2969 18.8217 14.9482Z" fill="#9CA3AF"/>
<path d="M6.15887 23.8856C6.5631 24.76 7.23755 25.5057 8.09832 26.0298C8.95908 26.5539 9.96816 26.8333 11 26.8333C12.0319 26.8333 13.0409 26.5539 13.9017 26.0298C14.7625 25.5057 15.4369 24.76 15.8412 23.8856H6.15887Z" fill="#9CA3AF"/>
</svg>
