<svg width="22" height="40" viewBox="0 0 22 40" fill="none" xmlns="http://www.w3.org/2000/svg">
<path d="M2.99999 14.62V10.6667C2.99999 9.732 3.15999 8.83467 3.45599 8C3.80666 7.00667 4.34799 6.10267 5.03599 5.33333C5.23466 5.112 5.44533 4.90133 5.66666 4.70267C6.43599 4.01467 7.33999 3.47333 8.33333 3.12267C9.16799 2.82667 10.0653 2.66667 11 2.66667C11.9347 2.66667 12.832 2.82667 13.6667 3.12267C14.66 3.47333 15.564 4.01467 16.3333 4.70267C16.5547 4.90133 16.7653 5.112 16.964 5.33333C17.652 6.10267 18.1933 7.00667 18.544 8C18.84 8.83467 19 9.732 19 10.6667V20.0013L21.6427 21.3213L21.6667 10.6667C21.6667 9.74533 21.5493 8.852 21.3307 8C21.0867 7.05333 20.716 6.15867 20.2387 5.33333C19.884 4.71733 19.468 4.14133 19 3.612C18.7053 3.27733 18.3893 2.96133 18.0547 2.66667C17.5253 2.19867 16.9493 1.78267 16.3333 1.428C15.508 0.950667 14.6133 0.58 13.6667 0.336C12.8147 0.117333 11.9213 0 11 0C10.0787 0 9.18533 0.117333 8.33333 0.336C7.38666 0.58 6.49199 0.950667 5.66666 1.428C5.05066 1.78267 4.47466 2.19867 3.94533 2.66667C3.61066 2.96133 3.29466 3.27733 2.99999 3.612C2.53199 4.14133 2.11599 4.71733 1.76133 5.33333C1.28399 6.15867 0.913328 7.05333 0.669328 8C0.450662 8.852 0.333328 9.74533 0.333328 10.6667V15.952L18.9907 25.3333L19 29.3333C19 30.268 18.84 31.1653 18.544 32C18.1933 32.9933 17.652 33.8973 16.964 34.6667C16.7653 34.888 16.5547 35.0987 16.3333 35.2973C15.564 35.9853 14.66 36.5267 13.6667 36.8773C12.832 37.1733 11.9347 37.3333 11 37.3333C10.0653 37.3333 9.16799 37.1733 8.33333 36.8773C7.33999 36.5267 6.43599 35.9853 5.66666 35.2973C5.44533 35.0987 5.23466 34.888 5.03599 34.6667C4.34799 33.8973 3.80666 32.9933 3.45599 32C3.15999 31.1653 2.99999 30.268 2.99999 29.3333V20.0027L0.333328 18.6667V29.3333C0.333328 30.2547 0.450662 31.148 0.669328 32C0.913328 32.9467 1.28399 33.8413 1.76133 34.6667C2.11599 35.2827 2.53199 35.8587 2.99999 36.388C3.29466 36.7227 3.61066 37.0387 3.94533 37.3333C4.47466 37.8013 5.05066 38.2173 5.66666 38.572C6.49199 39.0493 7.38666 39.42 8.33333 39.664C9.18533 39.8827 10.0787 40 11 40C11.9213 40 12.8147 39.8827 13.6667 39.664C14.6133 39.42 15.508 39.0493 16.3333 38.572C16.9493 38.2173 17.5253 37.8013 18.0547 37.3333C18.3893 37.0387 18.7053 36.7227 19 36.388C19.468 35.8587 19.884 35.2827 20.2387 34.6667C20.716 33.8413 21.0867 32.9467 21.3307 32C21.5493 31.148 21.6667 30.2547 21.6667 29.3333V24H21.6427L2.99999 14.62Z" fill="white"/>
<path d="M5.6662 21.3386V29.3346C5.6662 30.3053 5.9262 31.216 6.37953 32.0013C6.84753 32.8106 7.52353 33.4866 8.33286 33.9546C9.1182 34.408 10.0289 34.668 10.9995 34.668C11.9702 34.668 12.8809 34.408 13.6662 33.9546C14.4755 33.4866 15.1515 32.8106 15.6195 32.0013C16.0729 31.216 16.3329 30.3053 16.3329 29.3346V26.668H16.3089L13.6662 25.3453V29.3346C13.6662 30.808 12.4715 32.0013 10.9995 32.0013C9.5262 32.0013 8.33286 30.808 8.33286 29.3346V22.6746L5.6662 21.3386Z" fill="white"/>
<path d="M16.3261 18.6667H16.3341V10.6667C16.3341 9.69599 16.0741 8.78533 15.6208 7.99999C15.1528 7.19066 14.4768 6.51466 13.6674 6.04666C12.8821 5.59333 11.9714 5.33333 11.0008 5.33333C10.0301 5.33333 9.11942 5.59333 8.33409 6.04666C7.52475 6.51466 6.84875 7.19066 6.38075 7.99999C5.92742 8.78533 5.66742 9.69599 5.66742 10.6667V13.3453L8.33409 14.676V10.6667C8.33409 9.19333 9.52742 7.99999 11.0008 7.99999C12.4728 7.99999 13.6674 9.19333 13.6674 10.6667V17.3387L16.3261 18.6667Z" fill="white"/>
</svg>
