<svg width="10" height="7" viewBox="0 0 10 7" fill="none" xmlns="http://www.w3.org/2000/svg">
<path d="M1.27083 1.33333C1.33167 1.33385 1.39106 1.34625 1.44563 1.36848C1.50023 1.39077 1.54847 1.42217 1.58723 1.46028L1.59309 1.46614L4.66731 4.38802L5.01106 4.71516L5.35579 4.38802L8.42317 1.472C8.50342 1.39849 8.61631 1.35381 8.73763 1.35481C8.85892 1.35589 8.9706 1.40226 9.04915 1.47688C9.12682 1.5507 9.16536 1.64556 9.16634 1.7386C9.16718 1.83119 9.13021 1.92561 9.05501 2.00032L5.32649 5.54427C5.24698 5.6198 5.13389 5.66533 5.01106 5.66536C4.88837 5.66521 4.77505 5.61976 4.69563 5.54427L0.963211 1.99641L0.956375 1.99055L0.902664 1.93098C0.887346 1.90991 0.87488 1.88737 0.864578 1.86458C0.844112 1.81927 0.833821 1.77151 0.833328 1.72395C0.832893 1.67634 0.842077 1.62793 0.861649 1.58235C0.881336 1.53662 0.911933 1.493 0.951492 1.4554C0.990967 1.41795 1.03917 1.38696 1.09407 1.36555C1.14928 1.34408 1.20982 1.33282 1.27083 1.33333Z" fill="#9CA3AF" stroke="#9CA3AF"/>
</svg>
