<svg width="14" height="14" viewBox="0 0 14 14" fill="none" xmlns="http://www.w3.org/2000/svg">
<path d="M7 0.333344C5.68146 0.333344 4.39252 0.724337 3.2962 1.45688C2.19987 2.18942 1.34539 3.23061 0.840801 4.44879C0.336217 5.66696 0.204195 7.0074 0.461429 8.30061C0.718664 9.59382 1.3536 10.7817 2.28595 11.7141C3.2183 12.6464 4.40619 13.2813 5.6994 13.5386C6.9926 13.7958 8.33305 13.6638 9.55122 13.1592C10.7694 12.6546 11.8106 11.8001 12.5431 10.7038C13.2757 9.60748 13.6667 8.31855 13.6667 7.00001C13.6647 5.23249 12.9617 3.53793 11.7119 2.28811C10.4621 1.03829 8.76751 0.335285 7 0.333344ZM6.66666 3.00001C6.86445 3.00001 7.05778 3.05866 7.22223 3.16854C7.38668 3.27842 7.51486 3.4346 7.59054 3.61733C7.66623 3.80005 7.68603 4.00112 7.64745 4.1951C7.60886 4.38908 7.51362 4.56726 7.37377 4.70712C7.23392 4.84697 7.05574 4.94221 6.86175 4.98079C6.66777 5.01938 6.46671 4.99958 6.28398 4.92389C6.10125 4.8482 5.94508 4.72003 5.83519 4.55558C5.72531 4.39113 5.66666 4.19779 5.66666 4.00001C5.66666 3.73479 5.77202 3.48044 5.95956 3.2929C6.14709 3.10537 6.40145 3.00001 6.66666 3.00001ZM8.33333 10.3333H5.66666C5.48985 10.3333 5.32028 10.2631 5.19526 10.1381C5.07024 10.0131 5 9.84349 5 9.66667C5 9.48986 5.07024 9.32029 5.19526 9.19527C5.32028 9.07025 5.48985 9.00001 5.66666 9.00001H6.33333V7.00001H5.66666C5.48985 7.00001 5.32028 6.92977 5.19526 6.80475C5.07024 6.67972 5 6.51015 5 6.33334C5 6.15653 5.07024 5.98696 5.19526 5.86194C5.32028 5.73691 5.48985 5.66668 5.66666 5.66668H7C7.17681 5.66668 7.34638 5.73691 7.4714 5.86194C7.59643 5.98696 7.66666 6.15653 7.66666 6.33334V9.00001H8.33333C8.51014 9.00001 8.67971 9.07025 8.80473 9.19527C8.92976 9.32029 9 9.48986 9 9.66667C9 9.84349 8.92976 10.0131 8.80473 10.1381C8.67971 10.2631 8.51014 10.3333 8.33333 10.3333Z" fill="#9CA3AF"/>
</svg>
