<svg width="22" height="20" viewBox="0 0 22 20" fill="none" xmlns="http://www.w3.org/2000/svg">
<path d="M20.4118 3.33333H1.58824C1.25542 3.33333 0.936226 3.19286 0.700886 2.94281C0.465547 2.69276 0.333334 2.35362 0.333334 2C0.333334 1.64638 0.465547 1.30724 0.700886 1.05719C0.936226 0.807144 1.25542 0.666668 1.58824 0.666668H20.4118C20.7446 0.666668 21.0638 0.807144 21.2991 1.05719C21.5345 1.30724 21.6667 1.64638 21.6667 2C21.6667 2.35362 21.5345 2.69276 21.2991 2.94281C21.0638 3.19286 20.7446 3.33333 20.4118 3.33333Z" fill="white"/>
<path d="M20.4118 11.3333H1.58824C1.25542 11.3333 0.936226 11.1929 0.700886 10.9428C0.465547 10.6928 0.333334 10.3536 0.333334 10C0.333334 9.64638 0.465547 9.30724 0.700886 9.05719C0.936226 8.80714 1.25542 8.66667 1.58824 8.66667H20.4118C20.7446 8.66667 21.0638 8.80714 21.2991 9.05719C21.5345 9.30724 21.6667 9.64638 21.6667 10C21.6667 10.3536 21.5345 10.6928 21.2991 10.9428C21.0638 11.1929 20.7446 11.3333 20.4118 11.3333Z" fill="white"/>
<path d="M20.4118 19.3333H1.58824C1.25542 19.3333 0.936226 19.1929 0.700886 18.9428C0.465547 18.6928 0.333334 18.3536 0.333334 18C0.333334 17.6464 0.465547 17.3072 0.700886 17.0572C0.936226 16.8071 1.25542 16.6667 1.58824 16.6667H20.4118C20.7446 16.6667 21.0638 16.8071 21.2991 17.0572C21.5345 17.3072 21.6667 17.6464 21.6667 18C21.6667 18.3536 21.5345 18.6928 21.2991 18.9428C21.0638 19.1929 20.7446 19.3333 20.4118 19.3333Z" fill="white"/>
</svg>
