<svg width="12" height="12" viewBox="0 0 12 12" fill="none" xmlns="http://www.w3.org/2000/svg">
<path d="M11.2097 4.69925C11.1638 4.54983 11.0785 4.41691 10.9636 4.31578C10.8486 4.21464 10.7086 4.14937 10.5597 4.12748L7.90798 3.72548L6.72202 1.21877C6.65556 1.07808 6.55267 0.959601 6.425 0.876755C6.29733 0.793908 6.14998 0.75 5.99963 0.75C5.84927 0.75 5.70192 0.793908 5.57425 0.876755C5.44658 0.959601 5.3437 1.07808 5.27724 1.21877L4.09128 3.72548L1.43953 4.12748C1.29085 4.1501 1.15119 4.21565 1.03632 4.31671C0.921459 4.41776 0.835967 4.55031 0.789501 4.69938C0.743034 4.84845 0.737444 5.0081 0.773361 5.1603C0.809279 5.31251 0.885273 5.45121 0.992763 5.56074L2.91214 7.51211L2.45907 10.2669C2.43324 10.4215 2.4495 10.5806 2.50601 10.7261C2.56252 10.8715 2.657 10.9976 2.77872 11.0898C2.90045 11.182 3.04454 11.2368 3.19461 11.2479C3.34469 11.259 3.49474 11.2259 3.62771 11.1525L5.99963 9.85178L8.37155 11.1525C8.50458 11.2253 8.65445 11.2578 8.80426 11.2464C8.95406 11.235 9.09784 11.1802 9.21936 11.0881C9.34089 10.996 9.43532 10.8703 9.49201 10.7252C9.5487 10.5801 9.56538 10.4214 9.54018 10.2669L9.08712 7.51211L11.0065 5.56019C11.1145 5.45113 11.1909 5.3125 11.2268 5.16022C11.2628 5.00793 11.2568 4.84817 11.2097 4.69925Z" fill="#FACA15"/>
</svg>
