<svg width="16" height="16" viewBox="0 0 16 16" fill="none" xmlns="http://www.w3.org/2000/svg">
<path d="M15.3333 6.66667H13.84C13.6896 6.01085 13.4285 5.38546 13.068 4.81733L14.1347 3.75733C14.2596 3.63231 14.3299 3.46278 14.3299 3.286C14.3299 3.10922 14.2596 2.93968 14.1347 2.81467L13.192 1.872C13.067 1.74702 12.8974 1.67681 12.7207 1.67681C12.5439 1.67681 12.3744 1.74702 12.2493 1.872L11.1893 2.93867C10.6196 2.57514 9.99189 2.31179 9.33333 2.16V0.666666C9.33333 0.489855 9.2631 0.320285 9.13807 0.195261C9.01305 0.070237 8.84348 0 8.66667 0H7.33333C7.15652 0 6.98695 0.070237 6.86193 0.195261C6.7369 0.320285 6.66667 0.489855 6.66667 0.666666V2.16C6.01085 2.31044 5.38546 2.57151 4.81733 2.932L3.75733 1.872C3.63231 1.74702 3.46278 1.67681 3.286 1.67681C3.10922 1.67681 2.93969 1.74702 2.81467 1.872L1.872 2.81467C1.74702 2.93968 1.67681 3.10922 1.67681 3.286C1.67681 3.46278 1.74702 3.63231 1.872 3.75733L2.93867 4.824C2.57653 5.38964 2.31322 6.01274 2.16 6.66667H0.666667C0.489856 6.66667 0.320286 6.7369 0.195262 6.86193C0.0702377 6.98695 0 7.15652 0 7.33333V8.66667C0 8.84348 0.0702377 9.01305 0.195262 9.13807C0.320286 9.2631 0.489856 9.33333 0.666667 9.33333H2.16C2.31044 9.98915 2.57151 10.6145 2.932 11.1827L1.872 12.2427C1.74702 12.3677 1.67681 12.5372 1.67681 12.714C1.67681 12.8908 1.74702 13.0603 1.872 13.1853L2.81467 14.128C2.93969 14.253 3.10922 14.3232 3.286 14.3232C3.46278 14.3232 3.63231 14.253 3.75733 14.128L4.824 13.0613C5.38964 13.4235 6.01275 13.6868 6.66667 13.84V15.3333C6.66667 15.5101 6.7369 15.6797 6.86193 15.8047C6.98695 15.9298 7.15652 16 7.33333 16H8.66667C8.84348 16 9.01305 15.9298 9.13807 15.8047C9.2631 15.6797 9.33333 15.5101 9.33333 15.3333V13.84C9.98915 13.6896 10.6145 13.4285 11.1827 13.068L12.2427 14.1347C12.3677 14.2596 12.5372 14.3299 12.714 14.3299C12.8908 14.3299 13.0603 14.2596 13.1853 14.1347L14.128 13.192C14.253 13.067 14.3232 12.8974 14.3232 12.7207C14.3232 12.5439 14.253 12.3744 14.128 12.2493L13.0613 11.1893C13.4249 10.6196 13.6882 9.99189 13.84 9.33333H15.3333C15.5101 9.33333 15.6797 9.2631 15.8047 9.13807C15.9298 9.01305 16 8.84348 16 8.66667V7.33333C16 7.15652 15.9298 6.98695 15.8047 6.86193C15.6797 6.7369 15.5101 6.66667 15.3333 6.66667ZM8 11.3333C7.34073 11.3333 6.69626 11.1378 6.1481 10.7716C5.59994 10.4053 5.17269 9.8847 4.9204 9.27561C4.66811 8.66653 4.6021 7.9963 4.73072 7.3497C4.85933 6.7031 5.1768 6.10915 5.64298 5.64298C6.10915 5.1768 6.70309 4.85933 7.3497 4.73072C7.9963 4.6021 8.66653 4.66811 9.27561 4.9204C9.8847 5.17269 10.4053 5.59994 10.7716 6.1481C11.1378 6.69626 11.3333 7.34073 11.3333 8C11.3333 8.88405 10.9821 9.7319 10.357 10.357C9.7319 10.9821 8.88406 11.3333 8 11.3333Z" fill="white"/>
<path d="M8 9.33333C8.73638 9.33333 9.33333 8.73638 9.33333 8C9.33333 7.26362 8.73638 6.66667 8 6.66667C7.26362 6.66667 6.66667 7.26362 6.66667 8C6.66667 8.73638 7.26362 9.33333 8 9.33333Z" fill="white"/>
</svg>
