<svg width="48" height="48" viewBox="0 0 48 48" fill="none" xmlns="http://www.w3.org/2000/svg">
<rect width="48" height="48" rx="8" fill="#374151"/>
<path d="M24 10.6667C21.3629 10.6667 18.7851 11.4487 16.5924 12.9137C14.3997 14.3788 12.6908 16.4612 11.6816 18.8976C10.6724 21.3339 10.4084 24.0148 10.9229 26.6012C11.4373 29.1876 12.7072 31.5634 14.5719 33.4281C16.4366 35.2928 18.8124 36.5627 21.3988 37.0771C23.9852 37.5916 26.6661 37.3276 29.1024 36.3184C31.5388 35.3092 33.6212 33.6003 35.0863 31.4076C36.5513 29.215 37.3333 26.6371 37.3333 24C37.3295 20.465 35.9234 17.0758 33.4238 14.5762C30.9242 12.0766 27.535 10.6706 24 10.6667ZM29.3093 29.3093C29.0593 29.5593 28.7202 29.6997 28.3667 29.6997C28.0131 29.6997 27.674 29.5593 27.424 29.3093L23.0587 24.944C22.8093 24.6929 22.6685 24.3539 22.6667 24V18.6667C22.6667 18.313 22.8071 17.9739 23.0572 17.7239C23.3072 17.4738 23.6464 17.3333 24 17.3333C24.3536 17.3333 24.6928 17.4738 24.9428 17.7239C25.1929 17.9739 25.3333 18.313 25.3333 18.6667V23.448L29.3093 27.424C29.5593 27.674 29.6997 28.0131 29.6997 28.3667C29.6997 28.7202 29.5593 29.0593 29.3093 29.3093Z" fill="#9CA3AF"/>
</svg>
